<svg version="1.1" xmlns="http://www.w3.org/2000/svg" xmlns:xlink="http://www.w3.org/1999/xlink" width="225.1831" height="41.54584" viewBox="0,0,225.1831,41.54584"><g transform="translate(-34.21677,-157.18997)"><g data-paper-data="{&quot;isPaintingLayer&quot;:true}" fill-rule="nonzero" stroke-linejoin="miter" stroke-miterlimit="10" stroke-dasharray="" stroke-dashoffset="0" style="mix-blend-mode: normal"><g><path d="M254.2198,186.37354c-0.25551,0.71146 0.24484,1.96945 0.36573,3.18012c0.13624,1.36463 -0.10799,2.67089 -0.53218,3.09888c-3.0439,3.07136 -9.0191,-0.91873 -15.19928,-2.07543c-0.91699,-0.17163 -9.68325,6.724 -10.59252,6.39746c-1.82273,-0.65459 2.04681,0.01893 -0.3523,-0.20775c-2.9039,-0.27438 -6.33087,-2.84996 -8.08534,-5.84043c-1.47111,-2.50748 1.39628,-6.23265 2.98948,-9.94285c0.83344,-1.94088 0.27038,-4.10958 0.8055,-5.59966c0.69106,-1.92426 2.16577,-4.7276 2.98422,-8.04267c0.87123,-3.529 1.11979,-7.54154 3.01546,-8.40124c0.76377,-0.34638 1.33911,-1.28705 2.74599,-1.78808c1.69751,-0.60455 4.99746,-0.42837 6.28193,0.40194c1.4343,0.92712 3.43044,2.34339 4.36651,4.1651c1.02382,1.99248 -1.3071,-0.59296 -0.01199,-0.12784c1.48383,0.53289 1.75821,10.18034 2.98848,11.03097c3.91019,2.70358 10.67988,4.56796 11.66038,7.90557c0.30731,1.04608 -0.09205,2.42306 -1.0483,3.60698c-0.62815,0.77769 -2.05434,1.32722 -2.38178,2.23899z" fill="#99cc00" stroke="#eaffb5" stroke-width="3.5" stroke-linecap="butt"/><path d="M232.62333,159.32319c0,0 0.89607,-0.6873 2.48006,-0.57427c1.69818,0.12119 4.12902,1.10156 5.30141,2.95772c0.98072,1.55273 1.45388,4.19024 1.90654,6.67367c0.45591,2.50135 0.89101,4.84635 1.80296,5.76915c4.3775,4.42957 11.61079,5.40127 12.28038,7.13171c0.4996,1.29112 -2.78474,2.55665 -3.75667,3.16626c-0.76388,0.47913 0.72153,7.25794 -0.37481,7.61314c-1.522,0.49312 -13.70398,-4.0953 -15.32336,-3.48976c-2.62154,0.98028 -6.14224,5.78592 -8.42824,6.00975c-3.91287,0.38313 -8.47569,-5.72614 -8.35831,-6.76047c0.10109,-0.89091 1.59763,-2.97893 1.83345,-3.99937c0.66974,-2.89818 2.84676,-5.21022 3.96569,-8.42398c0.20685,-0.59413 0.16464,-2.29337 0.30082,-2.86844c1.05921,-4.47318 1.80421,-8.71148 2.60696,-10.69067c0.32663,-0.80534 2.5579,-1.99708 3.42798,-2.38229c0.8876,-0.39297 0.411,0.02873 0.411,0.02873" fill="none" stroke="#000000" stroke-width="3" stroke-linecap="round"/><path d="M235.51304,167.25645c1.47047,0.52809 2.21096,2.21355 1.65393,3.76459c-0.55703,1.55104 -2.20064,2.3803 -3.67109,1.85221c-1.47046,-0.52809 -2.21095,-2.21354 -1.65393,-3.76459c0.55703,-1.55104 2.20063,-2.3803 3.67109,-1.85223z" fill="#ffffff" stroke="#000000" stroke-width="1" stroke-linecap="butt"/><path d="M231.59623,178.70922c1.47046,0.52809 2.21095,2.21355 1.65393,3.76459c-0.55703,1.55104 -2.20063,2.3803 -3.67109,1.85223c-1.47046,-0.52809 -2.21095,-2.21354 -1.65393,-3.76459c0.55703,-1.55105 2.20064,-2.38031 3.67109,-1.85224z" fill="#ffffff" stroke="#000000" stroke-width="1" stroke-linecap="butt"/><path d="M233.77029,169.95393c0.14002,-0.38984 0.5695,-0.59237 0.95936,-0.45236c0.38984,0.14002 0.59237,0.5695 0.45236,0.95936c-0.14002,0.38984 -0.5695,0.59237 -0.95936,0.45236c-0.38984,-0.14002 -0.59237,-0.5695 -0.45236,-0.95936z" fill="#000000" stroke="none" stroke-width="0.5" stroke-linecap="butt"/><path d="M229.99172,181.27791c0.14002,-0.38984 0.5695,-0.59237 0.95936,-0.45236c0.38984,0.14002 0.59237,0.5695 0.45236,0.95936c-0.14002,0.38984 -0.5695,0.59237 -0.95936,0.45236c-0.38984,-0.14002 -0.59237,-0.5695 -0.45236,-0.95936z" fill="#000000" stroke="none" stroke-width="0.5" stroke-linecap="butt"/><path d="M242.97532,179.88049c0.14,-0.38984 0.56952,-0.59238 0.95936,-0.45236c0.38984,0.14 0.59238,0.56952 0.45236,0.95936c-0.14,0.38984 -0.56952,0.59238 -0.95936,0.45236c-0.38984,-0.14 -0.59238,-0.56952 -0.45236,-0.95936z" fill="#000000" stroke="none" stroke-width="0.5" stroke-linecap="butt"/><path d="M241.85162,183.88646c0.14,-0.38984 0.56952,-0.59238 0.95936,-0.45236c0.38984,0.14 0.59238,0.56952 0.45236,0.95936c-0.14,0.38984 -0.56952,0.59238 -0.95936,0.45236c-0.38984,-0.14 -0.59238,-0.56952 -0.45236,-0.95936z" fill="#000000" stroke="none" stroke-width="0.5" stroke-linecap="butt"/></g><path d="M34.65504,179.33944c-1.56525,-3.1305 1.56525,-4.69574 1.56525,-4.69574l0.25581,-0.11028c2.48102,-1.55012 4.88277,-3.13864 7.44438,-4.55738c3.60138,-1.44983 7.53421,-3.46999 11.32418,-4.33404c6.77908,-1.54551 15.47883,0.51651 20.12132,5.77166c5.24361,5.93559 9.29691,18.83407 18.52048,19.51888c9.96755,-3.29089 12.34336,-13.82208 18.3487,-21.32929c7.94996,-9.93815 19.27784,-9.97149 30.31154,-6.09878c1.78632,1.35063 3.72135,2.52522 5.35559,4.05637c6.36744,5.96581 10.23361,13.78588 17.58635,18.7655c3.13895,2.12585 9.29244,2.92137 12.47306,0.19319c2.43428,-2.08801 4.41918,-5.40252 6.1756,-8.03909c3.55715,-4.74758 6.34184,-10.49078 10.47506,-14.63777c1.84829,-1.85445 3.30551,-3.60711 6.10292,-4.22011c2.94697,-0.64577 7.67304,0.50413 10.63689,1.06922c3.50177,0.66765 3.97,0.3826 6.8391,2.69959c1.80632,1.45873 4.78742,4.41497 5.94602,6.38448c0.61683,1.04854 1.01726,2.38102 2.05485,3.0161c0,0 2.8,2.1 0.7,4.9c-2.1,2.8 -4.9,0.7 -4.9,0.7c-3.41871,-2.7969 -5.06489,-6.54875 -8.36575,-9.6938c-1.4155,-1.34868 -4.58586,-1.39645 -6.37282,-1.64035c-1.68438,-0.2299 -3.37767,-0.79473 -5.06553,-0.59193c-0.65587,0.07881 -2.5354,2.23644 -2.62594,2.32654c-3.81453,3.79628 -6.41294,9.33906 -9.71043,13.73103c-2.04532,3.06578 -4.49881,7.1287 -7.46325,9.41863c-2.42088,1.87006 -3.99986,2.23436 -6.90679,2.66379c-0.35848,0.05296 -6.94656,0.58258 -7.16671,0.55659c-3.47454,-0.41018 -6.38084,-2.75489 -9.06147,-4.76832c-7.76246,-5.83042 -12.44343,-14.59069 -20.00977,-20.71796c-4.61354,-1.40994 -10.65622,-3.33615 -15.32397,-0.77776c-7.10596,3.89476 -9.39312,10.98096 -13.65629,17.35238c-4.00261,5.982 -8.76556,9.68748 -15.64918,11.64379c-1.55174,-0.13504 -3.1511,-0.00043 -4.65521,-0.40512c-6.23304,-1.67703 -10.81488,-8.10699 -14.16914,-13.13664c-2.30002,-3.44883 -4.98737,-9.30896 -9.06551,-10.98283c-6.92512,-2.84242 -13.45411,0.40921 -19.79827,2.92791c-2.31648,1.29208 -4.49154,2.76573 -6.74002,4.17148l-0.8353,0.43528c0,0 -3.1305,1.56525 -4.69574,-1.56525z" fill="#000000" stroke="none" stroke-width="0.5" stroke-linecap="butt"/></g></g></svg>