<svg version="1.1" xmlns="http://www.w3.org/2000/svg" xmlns:xlink="http://www.w3.org/1999/xlink" width="228.94248" height="44.24188" viewBox="0,0,228.94248,44.24188"><g transform="translate(-30.46666,-157.40822)"><g data-paper-data="{&quot;isPaintingLayer&quot;:true}" fill-rule="nonzero" stroke-linejoin="miter" stroke-miterlimit="10" stroke-dasharray="" stroke-dashoffset="0" style="mix-blend-mode: normal"><g><path d="M255.66496,181.45409c-0.01099,0.75587 0.87027,1.78362 1.37723,2.88966c0.57141,1.2467 0.76397,2.56157 0.5015,3.10399c-1.88341,3.89247 -8.82963,2.05568 -15.05093,2.96562c-0.92309,0.13501 -6.97947,9.50076 -7.94549,9.48673c-1.9365,-0.02813 1.94234,-0.64584 -0.40063,-0.08228c-2.83595,0.68214 -6.91295,-0.64294 -9.54237,-2.90285c-2.20475,-1.89491 -0.70033,-6.34863 -0.39639,-10.37498c0.159,-2.10627 -1.07691,-3.97518 -1.05391,-5.55826c0.02971,-2.04437 0.51564,-5.17444 0.21483,-8.57578c-0.32025,-3.62082 -1.38633,-7.49712 0.12811,-8.9251c0.61017,-0.57534 0.84937,-1.65175 2.01775,-2.58194c1.40973,-1.12236 4.58848,-2.02582 6.07279,-1.65692c1.65744,0.4119 4.00498,1.10431 5.48122,2.52402c1.61462,1.5528 -1.42875,-0.13704 -0.0528,-0.11704c1.57645,0.02291 4.96453,9.06003 6.40416,9.46573c4.57561,1.28946 11.58405,0.85778 13.5939,3.69706c0.62993,0.88989 0.69869,2.32197 0.17804,3.752c-0.34201,0.93936 -1.51292,1.92169 -1.527,2.89037z" fill="#99cc00" stroke="#eaffb5" stroke-width="3.5" stroke-linecap="butt"/><path d="M226.46355,162.86897c0,0 0.62476,-0.94074 2.15981,-1.34748c1.64571,-0.43605 4.2631,-0.29695 5.97406,1.07872c1.43125,1.15079 2.73414,3.49233 3.96768,5.69476c1.24242,2.21833 2.41446,4.29551 3.57638,4.87271c5.57738,2.77064 12.73489,1.34418 13.92945,2.76396c0.89129,1.05934 -1.80517,3.32154 -2.52689,4.21339c-0.56723,0.70095 3.03618,6.63174 2.11427,7.32327c-1.27984,0.96003 -14.29145,0.57001 -15.62695,1.66796c-2.16198,1.77743 -3.93402,7.46508 -6.0239,8.41813c-3.57717,1.63131 -9.87456,-2.66816 -10.09894,-3.68466c-0.19328,-0.87555 0.54527,-3.33603 0.43743,-4.3778c-0.30629,-2.95875 1.00332,-5.85182 1.01961,-9.25476c0.003,-0.6291 -0.58796,-2.22283 -0.64563,-2.81098c-0.44861,-4.57493 -1.11829,-8.82579 -1.00075,-10.95834c0.04782,-0.86774 1.77205,-2.71865 2.47019,-3.36519c0.7122,-0.65957 0.39811,-0.1061 0.39811,-0.1061" fill="none" stroke="#000000" stroke-width="3" stroke-linecap="round"/><path d="M231.76974,169.43642c1.56226,0.0227 2.8093,1.37695 2.78535,3.0248c-0.02395,1.64786 -1.30982,2.9653 -2.87206,2.9426c-1.56225,-0.0227 -2.80929,-1.37694 -2.78535,-3.0248c0.02395,-1.64786 1.30981,-2.9653 2.87205,-2.94261z" fill="#ffffff" stroke="#000000" stroke-width="1" stroke-linecap="butt"/><path d="M231.77856,181.54044c1.56225,0.0227 2.80929,1.37695 2.78535,3.02481c-0.02395,1.64786 -1.30981,2.9653 -2.87205,2.94261c-1.56225,-0.0227 -2.80929,-1.37694 -2.78535,-3.0248c0.02394,-1.64787 1.30982,-2.96531 2.87205,-2.94262z" fill="#ffffff" stroke="#000000" stroke-width="1" stroke-linecap="butt"/><path d="M230.99592,172.55327c0.00603,-0.41418 0.34663,-0.74504 0.76082,-0.73902c0.41418,0.00603 0.74504,0.34663 0.73902,0.76082c-0.00603,0.41418 -0.34663,0.74504 -0.76082,0.73902c-0.41418,-0.00603 -0.74504,-0.34663 -0.73902,-0.76082z" fill="#000000" stroke="none" stroke-width="0.5" stroke-linecap="butt"/><path d="M231.09374,184.49063c0.00603,-0.41418 0.34663,-0.74504 0.76082,-0.73902c0.41418,0.00603 0.74504,0.34663 0.73902,0.76082c-0.00603,0.41418 -0.34663,0.74504 -0.76082,0.73902c-0.41418,-0.00603 -0.74504,-0.34663 -0.73902,-0.76082z" fill="#000000" stroke="none" stroke-width="0.5" stroke-linecap="butt"/><path d="M242.92254,178.95834c0.00602,-0.41417 0.34664,-0.74505 0.76082,-0.73902c0.41417,0.00602 0.74505,0.34664 0.73902,0.76082c-0.00602,0.41417 -0.34664,0.74505 -0.76082,0.73902c-0.41417,-0.00602 -0.74505,-0.34664 -0.73902,-0.76082z" fill="#000000" stroke="none" stroke-width="0.5" stroke-linecap="butt"/><path d="M243.15864,183.11223c0.00602,-0.41417 0.34664,-0.74505 0.76082,-0.73902c0.41417,0.00602 0.74505,0.34664 0.73902,0.76082c-0.00602,0.41417 -0.34664,0.74505 -0.76082,0.73902c-0.41417,-0.00602 -0.74505,-0.34664 -0.73902,-0.76082z" fill="#000000" stroke="none" stroke-width="0.5" stroke-linecap="butt"/></g><path d="M31.4984,188.53781c-0.57943,-0.51619 -1.03175,-1.32209 -1.03175,-2.58031c0,-3.5 3.5,-3.5 3.5,-3.5l3.59317,2.3932c1.61225,5.22195 6.65079,9.30255 12.12928,7.47419c3.41639,-2.08484 7.06816,-4.22407 9.72018,-7.28595c1.70217,-1.96524 2.71108,-4.79069 3.9497,-7.03955c5.6993,-10.34775 13.66734,-22.28354 27.08167,-20.04758c2.17625,0.36275 4.2384,1.32417 6.17733,2.37689c2.6754,1.81375 5.23707,3.95402 7.2105,6.56268c4.68405,6.19181 6.74043,14.07785 11.67019,20.11172c2.70626,3.31237 6.84201,6.52785 11.25611,4.71444c1.45219,-0.5966 2.61953,-1.63588 3.8571,-2.55896c1.15818,-0.86387 2.25881,-1.8303 3.18873,-2.93615c4.68884,-6.18269 7.11722,-13.45772 12.79041,-19.09377c3.03462,-3.01475 7.45142,-6.38915 11.70017,-7.25857c0.34427,-0.07045 6.22891,-0.05308 6.60835,-0.05308c8.20093,0 14.68714,2.09288 21.9592,5.84341c3.62046,3.52148 6.99693,7.36646 10.2074,11.25868c2.42659,2.94188 5.58227,8.65968 9.8506,9.40156c2.64434,0.45961 5.51944,-2.04544 7.24442,-3.55282c2.04637,-1.78823 3.33196,-2.86849 4.78075,-5.212c0,0 1.855,-2.96799 4.82299,-1.113c2.96799,1.855 1.113,4.82299 1.113,4.82299c-1.78417,2.82983 -3.62811,4.63639 -6.13033,6.79018c-1.629,1.40217 -3.3572,2.79213 -5.34805,3.60222c-2.36401,0.96193 -4.94458,1.97702 -7.59301,1.57382c-6.34534,-0.96602 -10.4915,-7.41996 -14.15376,-11.87503c-2.82214,-3.43308 -5.81181,-6.81004 -8.88698,-10.01791c-3.77316,-1.80171 -7.96093,-3.97314 -12.153,-4.5673c-3.14156,-0.44527 -7.98858,-0.52155 -11.10706,-0.00789c-1.89935,0.31285 -2.24873,1.05548 -3.76852,2.13804c-4.18339,2.97987 -7.85161,6.65702 -10.45095,11.17451c-2.04542,3.55483 -3.56329,7.21653 -6.02535,10.52605c-2.01054,2.31582 -4.22078,4.27338 -6.82694,5.92932c-2.2896,1.4548 -4.13281,2.35148 -6.89527,2.71464c-6.06701,0.79759 -11.77,-3.36018 -15.43903,-7.78797c-6.39468,-7.71711 -8.426,-19.49971 -17.12586,-25.1532c-12.25094,-7.05621 -20.06979,9.12494 -24.84247,17.7903c-0.28451,0.51656 -2.96386,4.97778 -3.41528,5.50819c-3.281,3.85517 -7.80757,6.53763 -12.10196,9.08066c-2.50681,0.83506 -4.20759,1.67484 -6.98037,1.39523c-6.44231,-0.64964 -11.65664,-5.87522 -14.13532,-11.54191z" fill="#000000" stroke="none" stroke-width="0.5" stroke-linecap="butt"/></g></g></svg>