<svg version="1.1" xmlns="http://www.w3.org/2000/svg" xmlns:xlink="http://www.w3.org/1999/xlink" width="220.83963" height="39.52722" viewBox="0,0,220.83963,39.52722"><g transform="translate(-40.01384,-162.62063)"><g data-paper-data="{&quot;isPaintingLayer&quot;:true}" fill-rule="nonzero" stroke-linejoin="miter" stroke-miterlimit="10" stroke-dasharray="" stroke-dashoffset="0" style="mix-blend-mode: normal"><path d="M41.67662,178.60938c-0.84498,-0.45154 -1.66278,-1.32558 -1.66278,-3.01741c0,-3.5 3.5,-3.5 3.5,-3.5l3.07278,1.4c1.521,2.028 2.94154,4.39572 4.66412,6.25366c1.89686,2.04591 4.74124,4.41377 7.08084,5.89393c2.51733,1.59261 6.95675,0.0385 9.11679,-1.47756c1.24604,-0.87455 2.78452,-1.39548 3.80594,-2.52428c2.27756,-2.517 3.61438,-6.14431 5.98473,-8.71152c2.36891,-2.56565 5.17115,-4.29946 8.22284,-5.90509c7.24503,-0.22485 13.02747,0.10899 18.74254,5.12866c1.94271,1.70633 4.37703,4.10032 6.06539,6.06975c2.02218,2.35881 3.01081,4.97678 6.33405,5.96827c1.63196,0.48689 3.82887,-1.06752 5.05565,-1.79062c3.74353,-2.20651 6.53719,-5.33013 9.5775,-8.35818c7.79389,-5.87503 18.43402,-9.68792 27.62131,-3.86102c3.97791,2.52293 6.46237,7.58569 8.78323,11.54657c0.46543,0.79433 1.94927,4.13701 3.10952,4.49646c2.16305,0.67012 6.34315,-0.94103 8.27528,-1.82518c1.93285,-0.85089 3.9467,-1.68697 5.41399,-3.2863c3.2029,-3.49112 4.91259,-8.53457 9.58162,-10.62215c3.16279,-1.41412 6.51541,-0.73922 9.78625,-0.57326c2.65372,0.13465 4.03435,-0.35018 6.70978,0.84604c1.88925,0.84471 3.14953,2.68692 4.67272,4.08788c1.48842,1.36898 3.97719,1.55205 5.84179,1.9645c0,0 3.41665,0.75926 2.6574,4.17591c-0.75926,3.41665 -4.17591,2.6574 -4.17591,2.6574c-1.6693,-0.37249 -4.38026,-0.90504 -5.86672,-1.59194c-2.57798,-1.1913 -3.6225,-3.86809 -5.98647,-4.90341c-0.97016,-0.42489 -3.41902,-0.20657 -4.20129,-0.24507c-1.9211,-0.09454 -4.68087,-0.85961 -6.58036,-0.02771c-3.28889,1.4404 -5.02975,6.55883 -7.33054,9.01778c-2.16075,2.30927 -4.85196,3.63045 -7.6793,4.89701c-3.59022,1.56137 -9.5941,3.43532 -13.54687,1.9937c-3.17122,-1.15658 -5.1354,-4.83792 -6.71044,-7.50573c-3.75571,-6.36141 -6.82421,-11.71575 -15.18917,-10.84273c-1.55122,0.16189 -3.12645,0.36215 -4.59289,0.89324c-2.15241,0.77953 -4.19572,2.64693 -6.00652,3.9962c-5.08353,5.11092 -12.60217,13.56921 -20.82784,11.67336c-7.94205,-1.83049 -11.14417,-10.94499 -17.49246,-15.21654c-3.24127,-2.18094 -6.57397,-1.76217 -10.28536,-1.98668c-3.92847,2.49689 -6.56664,6.03921 -9.18875,9.79465c-0.63587,0.91071 -0.93698,2.05846 -1.69916,2.86642c-1.37854,1.46135 -3.25859,2.35168 -4.92292,3.47681c-2.1296,1.43966 -3.31524,2.18037 -5.89987,2.72147c-10.81296,2.26372 -17.95442,-6.26405 -23.83043,-14.04729z" fill="#000000" stroke="none" stroke-width="0.5" stroke-linecap="butt"/><g><path d="M254.97102,175.01171c0.2942,0.69635 1.51462,1.28242 2.42391,2.09083c1.02491,0.91122 1.73046,2.03735 1.70854,2.63954c-0.15723,4.32132 -7.25521,5.436 -12.58394,8.77325c-0.79066,0.49516 -2.56467,11.50652 -3.45462,11.88253c-1.78401,0.75376 1.51806,-1.37306 -0.39986,0.08595c-2.32146,1.766 -6.58696,2.19414 -9.90363,1.18384c-2.781,-0.84712 -3.19662,-5.52966 -4.53914,-9.33775c-0.7023,-1.99209 -2.58595,-3.20541 -3.20214,-4.66383c-0.79573,-1.88339 -1.61087,-4.94427 -3.25538,-7.93679c-1.75066,-3.18561 -4.2869,-6.30486 -3.47538,-8.22165c0.32696,-0.77228 0.11263,-1.85392 0.80774,-3.17573c0.83869,-1.59488 3.38486,-3.70146 4.8921,-3.96126c1.68303,-0.29012 4.1107,-0.60125 6.03354,0.10413c2.10309,0.7715 -1.36305,0.44967 -0.09545,-0.08589c1.45231,-0.6136 8.19152,6.29521 9.67268,6.08709c4.70759,-0.66146 10.94938,-3.87775 13.93212,-2.08769c0.93485,0.56104 1.57426,1.8443 1.67328,3.36293c0.06505,0.99757 -0.61139,2.36813 -0.23435,3.26053z" fill="#99cc00" stroke="#eaffb5" stroke-width="3.5" stroke-linecap="butt"/><path d="M220.75876,169.75334c0,0 0.19323,-1.11265 1.4347,-2.10289c1.33097,-1.06162 3.78293,-1.98787 5.90291,-1.41729c1.77341,0.47731 3.90863,2.09631 5.92437,3.61589c2.03027,1.53056 3.9393,2.96023 5.23527,3.02089c6.22084,0.29118 12.19866,-3.89575 13.86368,-3.07693c1.24231,0.61095 -0.31543,3.7672 -0.6171,4.87412c-0.23709,0.86998 5.44883,4.84856 4.88328,5.85269c-0.78513,1.394 -12.85302,6.27458 -13.63358,7.81723c-1.26361,2.49734 -0.59628,8.41715 -2.12573,10.13082c-2.6179,2.93324 -10.11325,1.53239 -10.72782,0.69221c-0.52937,-0.72368 -0.84372,-3.27331 -1.36179,-4.18354c-1.47138,-2.58516 -1.43711,-5.76066 -2.792,-8.88228c-0.25049,-0.57709 -1.43299,-1.79812 -1.72253,-2.3133c-2.25222,-4.00733 -4.57637,-7.62902 -5.32719,-9.62849c-0.30552,-0.81358 0.5278,-3.20198 0.90662,-4.07485c0.38645,-0.89046 0.32172,-0.25738 0.32172,-0.25738" fill="none" stroke="#000000" stroke-width="3" stroke-linecap="round"/><path d="M228.2597,173.6293c1.43924,-0.60808 3.12592,0.12963 3.76731,1.64772c0.6414,1.5181 -0.00538,3.2417 -1.4446,3.84977c-1.43923,0.60808 -3.1259,-0.12962 -3.76731,-1.64772c-0.6414,-1.5181 0.00537,-3.24169 1.44459,-3.84978z" fill="#ffffff" stroke="#000000" stroke-width="1" stroke-linecap="butt"/><path d="M233.14005,184.70583c1.43923,-0.60808 3.12591,0.12963 3.76731,1.64773c0.6414,1.5181 -0.00537,3.24169 -1.44459,3.84978c-1.43923,0.60808 -3.1259,-0.12962 -3.76731,-1.64772c-0.64141,-1.51811 0.00538,-3.24171 1.44459,-3.84979z" fill="#ffffff" stroke="#000000" stroke-width="1" stroke-linecap="butt"/><path d="M228.80598,176.79397c-0.1612,-0.38157 0.0174,-0.82154 0.39898,-0.98276c0.38157,-0.1612 0.82154,0.0174 0.98276,0.39898c0.1612,0.38157 -0.0174,0.82154 -0.39898,0.98276c-0.38157,0.1612 -0.82154,-0.0174 -0.98276,-0.39898z" fill="#000000" stroke="none" stroke-width="0.5" stroke-linecap="butt"/><path d="M233.70071,187.68211c-0.1612,-0.38157 0.0174,-0.82154 0.39898,-0.98276c0.38157,-0.1612 0.82154,0.0174 0.98276,0.39898c0.1612,0.38157 -0.0174,0.82154 -0.39898,0.98276c-0.38157,0.1612 -0.82154,-0.0174 -0.98276,-0.39898z" fill="#000000" stroke="none" stroke-width="0.5" stroke-linecap="butt"/><path d="M242.30192,177.85634c-0.16121,-0.38156 0.01741,-0.82156 0.39898,-0.98276c0.38156,-0.16121 0.82156,0.01741 0.98276,0.39898c0.16121,0.38156 -0.01741,0.82156 -0.39898,0.98276c-0.38156,0.16121 -0.82156,-0.01741 -0.98276,-0.39898z" fill="#000000" stroke="none" stroke-width="0.5" stroke-linecap="butt"/><path d="M244.19013,181.56379c-0.16121,-0.38156 0.01741,-0.82156 0.39898,-0.98276c0.38156,-0.16121 0.82156,0.01741 0.98276,0.39898c0.16121,0.38156 -0.01741,0.82156 -0.39898,0.98276c-0.38156,0.16121 -0.82156,-0.01741 -0.98276,-0.39898z" fill="#000000" stroke="none" stroke-width="0.5" stroke-linecap="butt"/></g></g></g></svg>