<svg version="1.1" xmlns="http://www.w3.org/2000/svg" xmlns:xlink="http://www.w3.org/1999/xlink" width="216.45736" height="43.24204" viewBox="0,0,216.45736,43.24204"><g transform="translate(-43.83274,-159.02934)"><g data-paper-data="{&quot;isPaintingLayer&quot;:true}" fill-rule="nonzero" stroke-linejoin="miter" stroke-miterlimit="10" stroke-dasharray="" stroke-dashoffset="0" style="mix-blend-mode: normal"><path d="M43.83274,174.50087c0,-3.5 3.5,-3.5 3.5,-3.5l-0.2137,0.08335c4.194,-0.92324 8.11607,-2.95793 12.30218,-3.82481c5.62372,-1.16459 14.14204,-0.56144 19.18459,2.3383c3.23447,1.85999 5.70052,5.01733 8.29946,7.61106c1.83902,1.84223 3.28771,3.37036 5.63393,4.5256c1.39833,0.68851 2.75387,1.57289 4.28248,1.8774c7.54602,1.50323 14.94904,-5.39441 19.77651,-10.22188c2.21304,-2.21304 3.75028,-4.56737 6.75998,-5.89648c3.35186,-1.48022 6.63163,-1.12974 10.17207,-1.12974c2.65164,0.03365 7.08861,0.26649 9.55963,1.37307c1.8435,0.82557 2.91845,2.79636 4.45222,4.11074c6.48396,5.55652 16.15744,11.29003 24.86779,7.12477c2.61898,-1.25239 4.80529,-3.29433 7.02126,-5.11716c0.80923,-1.35128 2.02908,-3.46083 2.94724,-4.57373c4.86539,-5.89735 11.52192,-6.33603 18.60324,-5.6281c3.5406,0.35396 6.85283,0.54506 9.6571,3.08717c2.43495,2.20732 2.57156,5.03491 4.43531,7.45651c1.69488,2.20218 4.71161,2.30846 7.18418,2.54961c0,0 3.48263,0.34826 3.13437,3.83089c-0.34826,3.48263 -3.83089,3.13437 -3.83089,3.13437c-4.49278,-0.45881 -8.86035,-1.34887 -11.9102,-5.08814c-1.63428,-2.00371 -1.91603,-4.91969 -3.74799,-6.72789c-1.32141,-1.30427 -3.97109,-1.11247 -5.6184,-1.27726c-4.57023,-0.45717 -9.32927,-0.88269 -12.49332,3.10076c-0.21935,0.27616 -3.02369,4.65379 -3.05385,4.70068c-2.88066,2.53596 -5.81936,5.24367 -9.34535,6.88502c-6.26893,2.91819 -15.10526,2.55262 -21.1369,-0.62115c-3.83952,-2.0203 -7.99685,-4.71631 -11.27845,-7.52959c-1.00779,-0.86396 -1.38027,-2.56289 -2.63998,-2.98146c-1.92447,-0.63945 -4.76528,-0.84696 -6.80698,-0.80914c-2.33681,0 -5.07882,-0.48659 -7.28565,0.50693c-3.2782,1.47585 -5.99372,5.68489 -8.61233,8.10829c-5.705,5.27974 -14.03676,10.12993 -22.13433,8.50657c-0.84243,-0.16889 -5.07902,-1.97913 -6.08304,-2.48703c-3.0266,-1.53105 -5.08356,-3.46793 -7.45936,-5.83992c-2.20646,-2.21048 -4.27828,-4.92623 -6.97604,-6.57334c-1.9224,-1.17371 -4.56841,-1.20547 -6.7184,-1.42054c-7.25813,-0.72605 -12.69471,2.20062 -19.62352,3.7529l-1.30481,0.08335c0,0 -3.5,0 -3.5,-3.5z" fill="#000000" stroke="none" stroke-width="0.5" stroke-linecap="butt"/><g><path d="M255.77007,179.07312c0.10431,0.74872 1.13187,1.63019 1.80144,2.64608c0.75469,1.14508 1.14535,2.41526 0.96859,2.99134c-1.26834,4.13399 -8.41332,3.37702 -14.42333,5.22426c-0.89174,0.27408 -5.45037,10.45327 -6.40725,10.58659c-1.91818,0.26726 1.82126,-0.93425 -0.40849,-0.02028c-2.6989,1.10628 -6.9302,0.41787 -9.87325,-1.41501c-2.46773,-1.53685 -1.65948,-6.1678 -1.97257,-10.19344c-0.16378,-2.1059 -1.67002,-3.76468 -1.8885,-5.33278c-0.28213,-2.02503 -0.27879,-5.19259 -1.09434,-8.50838c-0.8682,-3.52975 -2.51246,-7.19835 -1.23328,-8.84041c0.51538,-0.66159 0.58778,-1.76188 1.60079,-2.85923c1.22226,-1.32405 4.22624,-2.7013 5.74942,-2.56287c1.70085,0.15455 4.12648,0.48119 5.8018,1.65939c1.83236,1.28865 -1.43295,0.08225 -0.07002,-0.10763c1.56153,-0.21756 6.28701,8.19781 7.77165,8.37942c4.71866,0.57723 11.57949,-0.91726 13.99849,1.58263c0.75816,0.78352 1.04432,2.1884 0.74764,3.68106c-0.19489,0.9805 -1.20245,2.12977 -1.06877,3.08929z" fill="#99cc00" stroke="#eaffb5" stroke-width="3.5" stroke-linecap="butt"/><path d="M224.07785,165.15433c0,0 0.47413,-1.02495 1.92928,-1.66083c1.56005,-0.68171 4.16808,-0.94304 6.06867,0.15587c1.58988,0.91928 3.23433,3.03496 4.78905,5.02372c1.56591,2.00312 3.04076,3.87747 4.27706,4.27089c5.93441,1.88848 12.79101,-0.61189 14.18795,0.6093c1.04229,0.91117 -1.278,3.55781 -1.8554,4.54921c-0.45381,0.77919 4.01119,6.09169 3.20541,6.91562c-1.11862,1.14383 -14.03773,2.7409 -15.19035,4.02952c-1.86591,2.08609 -2.75065,7.97733 -4.67092,9.23768c-3.28684,2.15731 -10.1658,-1.13245 -10.54245,-2.10289c-0.32443,-0.83588 0.0306,-3.38016 -0.23471,-4.39333c-0.75353,-2.87754 0.09998,-5.93637 -0.40242,-9.30206c-0.09289,-0.62221 -0.91978,-2.10729 -1.06639,-2.67979c-1.14044,-4.45316 -2.44999,-8.55235 -2.65876,-10.67791c-0.08495,-0.86489 1.33713,-2.95691 1.9286,-3.70227c0.60339,-0.76038 0.3773,-0.16552 0.3773,-0.16552" fill="none" stroke="#000000" stroke-width="3" stroke-linecap="round"/><path d="M230.32275,170.83661c1.54748,-0.2156 2.9863,0.93283 3.21371,2.56509c0.22741,1.63227 -0.84271,3.13025 -2.39017,3.34585c-1.54747,0.2156 -2.98629,-0.93282 -3.21371,-2.56509c-0.22741,-1.63227 0.8427,-3.13025 2.39016,-3.34586z" fill="#ffffff" stroke="#000000" stroke-width="1" stroke-linecap="butt"/><path d="M232.17572,182.79796c1.54747,-0.2156 2.98629,0.93283 3.21371,2.5651c0.22741,1.63227 -0.8427,3.13025 -2.39016,3.34586c-1.54747,0.2156 -2.98629,-0.93282 -3.21371,-2.56509c-0.22742,-1.63228 0.84271,-3.13026 2.39016,-3.34587z" fill="#ffffff" stroke="#000000" stroke-width="1" stroke-linecap="butt"/><path d="M230.03287,174.03497c-0.05715,-0.41026 0.22906,-0.78916 0.63933,-0.84632c0.41026,-0.05715 0.78916,0.22906 0.84632,0.63933c0.05715,0.41026 -0.22906,0.78916 -0.63933,0.84632c-0.41026,0.05715 -0.78916,-0.22906 -0.84632,-0.63933z" fill="#000000" stroke="none" stroke-width="0.5" stroke-linecap="butt"/><path d="M231.94841,185.81805c-0.05715,-0.41026 0.22906,-0.78916 0.63933,-0.84632c0.41026,-0.05715 0.78916,0.22906 0.84632,0.63933c0.05715,0.41026 -0.22906,0.78916 -0.63933,0.84632c-0.41026,0.05715 -0.78916,-0.22906 -0.84632,-0.63933z" fill="#000000" stroke="none" stroke-width="0.5" stroke-linecap="butt"/><path d="M242.79616,178.54803c-0.05716,-0.41025 0.22907,-0.78917 0.63933,-0.84632c0.41025,-0.05716 0.78917,0.22907 0.84632,0.63933c0.05716,0.41025 -0.22907,0.78917 -0.63933,0.84632c-0.41025,0.05716 -0.78917,-0.22907 -0.84632,-0.63933z" fill="#000000" stroke="none" stroke-width="0.5" stroke-linecap="butt"/><path d="M243.66242,182.61745c-0.05716,-0.41025 0.22907,-0.78917 0.63933,-0.84632c0.41025,-0.05716 0.78917,0.22907 0.84632,0.63933c0.05716,0.41025 -0.22907,0.78917 -0.63933,0.84632c-0.41025,0.05716 -0.78917,-0.22907 -0.84632,-0.63933z" fill="#000000" stroke="none" stroke-width="0.5" stroke-linecap="butt"/></g></g></g></svg>