<svg version="1.1" xmlns="http://www.w3.org/2000/svg" xmlns:xlink="http://www.w3.org/1999/xlink" width="224.84158" height="41.54584" viewBox="0,0,224.84158,41.54584"><g transform="translate(-34.5583,-157.18996)"><g data-paper-data="{&quot;isPaintingLayer&quot;:true}" fill-rule="nonzero" stroke-linejoin="miter" stroke-miterlimit="10" stroke-dasharray="" stroke-dashoffset="0" style="mix-blend-mode: normal"><path d="M34.55831,167.95423c0,-3.5 3.5,-3.5 3.5,-3.5h1.36388c3.27079,0.04495 5.72456,0.8535 8.88015,1.59181c3.67991,1.99187 8.04342,3.98788 10.74329,7.33257c3.34619,4.14539 4.35984,9.52072 8.23227,13.38999c0.94695,0.94618 1.72812,2.22387 2.98376,2.68792c1.12572,0.41604 2.37659,-0.3557 3.5446,-0.63153c1.85919,-0.43905 2.73973,-0.53838 4.24614,-1.63866c1.30002,-0.94953 2.50661,-2.03043 3.64297,-3.17076c1.97206,-1.97895 3.94871,-3.93231 5.62422,-6.16633c2.64252,-2.32775 5.53333,-4.87999 7.83275,-7.55103c2.63618,-3.06222 5.93025,-7.0833 9.98382,-8.38896c14.52343,-4.678 25.33496,9.73685 32.67479,19.57281c2.22898,2.21828 4.85087,6.78083 8.35025,6.9775c1.54812,0.08701 3.62006,-1.6694 4.62901,-2.6134c3.02525,-2.83051 5.11191,-6.77902 6.4406,-10.58981c3.11666,-8.93886 9.96343,-15.04338 19.67092,-15.16658c4.55845,0.00683 9.56103,0.30821 13.07652,3.71678c3.62938,3.519 4.42122,10.08682 9.19225,12.46018c2.0099,0.99983 4.49756,0.73689 6.64558,0.73521c4.60561,-0.0036 8.74914,-0.92662 13.32197,-1.34951c0,0 3.48563,-0.31688 3.8025,3.16875c0.31688,3.48563 -3.16875,3.8025 -3.16875,3.8025c-7.44427,0.66352 -16.50617,3.52588 -23.67675,-0.06875c-6.07859,-3.04721 -6.77125,-9.22631 -10.99324,-13.7264c-1.91313,-2.03915 -5.73709,-1.74295 -8.20007,-1.73876c-4.41951,-0.08186 -8.81351,2.10924 -11.22539,6.00705c-1.40005,2.26261 -1.70464,5.10442 -2.77096,7.48444c-1.21108,2.70312 -3.237,5.56637 -5.10686,7.85293c-4.1358,5.05745 -9.84742,8.73805 -16.4981,5.86632c-3.54122,-1.52908 -6.13198,-5.57466 -8.77764,-8.23205c-4.54477,-6.03171 -9.11315,-13.78722 -16.56304,-16.46448c-2.54777,-0.91559 -5.87137,-1.88301 -8.59087,-1.06036c-2.7621,0.83553 -5.15574,4.30814 -6.92835,6.34099c-2.37037,2.71836 -5.26934,5.36257 -7.98831,7.72447c-2.24995,2.99993 -5.07103,5.72197 -7.91277,8.17635c-2.19671,1.89727 -2.80736,2.72353 -5.60862,3.86917c-0.96881,0.39621 -5.51452,1.5311 -6.70332,1.60526c-6.87131,0.42868 -12.15109,-6.01947 -15.16506,-11.66065c-1.14322,-2.13974 -1.9204,-4.86641 -3.43938,-6.7939c-1.85992,-2.36011 -5.26858,-3.75295 -7.80554,-5.21516c-2.297,-0.47572 -4.03517,-1.18517 -6.39535,-1.13595h-1.36388c0,0 -3.5,0 -3.5,-3.5z" fill="#000000" stroke="none" stroke-width="0.5" stroke-linecap="butt"/><g><path d="M254.2198,186.37354c-0.25551,0.71146 0.24484,1.96945 0.36573,3.18012c0.13624,1.36463 -0.10799,2.67089 -0.53218,3.09888c-3.0439,3.07136 -9.0191,-0.91873 -15.19928,-2.07543c-0.91699,-0.17163 -9.68325,6.724 -10.59252,6.39746c-1.82273,-0.65459 2.04681,0.01893 -0.3523,-0.20775c-2.9039,-0.27438 -6.33087,-2.84996 -8.08534,-5.84043c-1.47111,-2.50748 1.39628,-6.23265 2.98948,-9.94285c0.83344,-1.94088 0.27038,-4.10958 0.8055,-5.59966c0.69106,-1.92426 2.16577,-4.7276 2.98422,-8.04267c0.87123,-3.529 1.11979,-7.54154 3.01546,-8.40124c0.76377,-0.34638 1.33911,-1.28705 2.74599,-1.78808c1.69751,-0.60455 4.99746,-0.42837 6.28193,0.40194c1.4343,0.92712 3.43044,2.34339 4.36651,4.1651c1.02382,1.99248 -1.3071,-0.59296 -0.01199,-0.12784c1.48383,0.53289 1.75821,10.18034 2.98848,11.03097c3.91019,2.70358 10.67988,4.56796 11.66038,7.90557c0.30731,1.04608 -0.09205,2.42306 -1.0483,3.60698c-0.62815,0.77769 -2.05434,1.32722 -2.38178,2.23899z" fill="#99cc00" stroke="#eaffb5" stroke-width="3.5" stroke-linecap="butt"/><path d="M232.62333,159.32319c0,0 0.89607,-0.6873 2.48006,-0.57427c1.69818,0.12119 4.12902,1.10156 5.30141,2.95772c0.98072,1.55273 1.45388,4.19024 1.90654,6.67367c0.45591,2.50135 0.89101,4.84635 1.80296,5.76915c4.3775,4.42957 11.61079,5.40127 12.28038,7.13171c0.4996,1.29112 -2.78474,2.55665 -3.75667,3.16626c-0.76388,0.47913 0.72153,7.25794 -0.37481,7.61314c-1.522,0.49312 -13.70398,-4.0953 -15.32336,-3.48976c-2.62154,0.98028 -6.14224,5.78592 -8.42824,6.00975c-3.91287,0.38313 -8.47569,-5.72614 -8.35831,-6.76047c0.10109,-0.89091 1.59763,-2.97893 1.83345,-3.99937c0.66974,-2.89818 2.84676,-5.21022 3.96569,-8.42398c0.20685,-0.59413 0.16464,-2.29337 0.30082,-2.86844c1.05921,-4.47318 1.80421,-8.71148 2.60696,-10.69067c0.32663,-0.80534 2.5579,-1.99708 3.42798,-2.38229c0.8876,-0.39297 0.411,0.02873 0.411,0.02873" fill="none" stroke="#000000" stroke-width="3" stroke-linecap="round"/><path d="M235.51304,167.25645c1.47047,0.52809 2.21096,2.21355 1.65393,3.76459c-0.55703,1.55104 -2.20064,2.3803 -3.67109,1.85221c-1.47046,-0.52809 -2.21095,-2.21354 -1.65393,-3.76459c0.55703,-1.55104 2.20063,-2.3803 3.67109,-1.85223z" fill="#ffffff" stroke="#000000" stroke-width="1" stroke-linecap="butt"/><path d="M231.59623,178.70922c1.47046,0.52809 2.21095,2.21355 1.65393,3.76459c-0.55703,1.55104 -2.20063,2.3803 -3.67109,1.85223c-1.47046,-0.52809 -2.21095,-2.21354 -1.65393,-3.76459c0.55703,-1.55105 2.20064,-2.38031 3.67109,-1.85224z" fill="#ffffff" stroke="#000000" stroke-width="1" stroke-linecap="butt"/><path d="M233.77029,169.95393c0.14002,-0.38984 0.5695,-0.59237 0.95936,-0.45236c0.38984,0.14002 0.59237,0.5695 0.45236,0.95936c-0.14002,0.38984 -0.5695,0.59237 -0.95936,0.45236c-0.38984,-0.14002 -0.59237,-0.5695 -0.45236,-0.95936z" fill="#000000" stroke="none" stroke-width="0.5" stroke-linecap="butt"/><path d="M229.99172,181.27791c0.14002,-0.38984 0.5695,-0.59237 0.95936,-0.45236c0.38984,0.14002 0.59237,0.5695 0.45236,0.95936c-0.14002,0.38984 -0.5695,0.59237 -0.95936,0.45236c-0.38984,-0.14002 -0.59237,-0.5695 -0.45236,-0.95936z" fill="#000000" stroke="none" stroke-width="0.5" stroke-linecap="butt"/><path d="M242.97532,179.88049c0.14,-0.38984 0.56952,-0.59238 0.95936,-0.45236c0.38984,0.14 0.59238,0.56952 0.45236,0.95936c-0.14,0.38984 -0.56952,0.59238 -0.95936,0.45236c-0.38984,-0.14 -0.59238,-0.56952 -0.45236,-0.95936z" fill="#000000" stroke="none" stroke-width="0.5" stroke-linecap="butt"/><path d="M241.85162,183.88646c0.14,-0.38984 0.56952,-0.59238 0.95936,-0.45236c0.38984,0.14 0.59238,0.56952 0.45236,0.95936c-0.14,0.38984 -0.56952,0.59238 -0.95936,0.45236c-0.38984,-0.14 -0.59238,-0.56952 -0.45236,-0.95936z" fill="#000000" stroke="none" stroke-width="0.5" stroke-linecap="butt"/></g></g></g></svg>