<svg version="1.1" xmlns="http://www.w3.org/2000/svg" xmlns:xlink="http://www.w3.org/1999/xlink" width="220.27626" height="43.24204" viewBox="0,0,220.27626,43.24204"><g transform="translate(-40.01384,-159.02935)"><g data-paper-data="{&quot;isPaintingLayer&quot;:true}" fill-rule="nonzero" stroke-linejoin="miter" stroke-miterlimit="10" stroke-dasharray="" stroke-dashoffset="0" style="mix-blend-mode: normal"><path d="M41.67662,178.60938c-0.84498,-0.45154 -1.66278,-1.32558 -1.66278,-3.01741c0,-3.5 3.5,-3.5 3.5,-3.5l3.07278,1.4c1.521,2.028 2.94154,4.39572 4.66412,6.25366c1.89686,2.04591 4.74124,4.41377 7.08084,5.89393c2.51733,1.59261 6.95675,0.0385 9.11679,-1.47756c1.24604,-0.87455 2.78452,-1.39548 3.80594,-2.52428c2.27756,-2.517 3.61438,-6.14431 5.98473,-8.71152c2.36891,-2.56565 5.17115,-4.29946 8.22284,-5.90509c7.24503,-0.22485 13.02747,0.10899 18.74254,5.12866c1.94271,1.70633 4.37703,4.10032 6.06539,6.06975c2.02218,2.35881 3.01081,4.97678 6.33405,5.96827c1.63196,0.48689 3.82887,-1.06752 5.05565,-1.79062c3.74353,-2.20651 6.53719,-5.33013 9.5775,-8.35818c7.79389,-5.87503 18.43402,-9.68792 27.62131,-3.86102c3.97791,2.52293 6.46237,7.58569 8.78323,11.54657c0.46543,0.79433 1.94927,4.13701 3.10952,4.49646c2.16305,0.67012 6.34315,-0.94103 8.27528,-1.82518c1.93285,-0.85089 3.9467,-1.68697 5.41399,-3.2863c3.2029,-3.49112 4.91259,-8.53457 9.58162,-10.62215c3.16279,-1.41412 6.51541,-0.73922 9.78625,-0.57326c2.65372,0.13465 4.03435,-0.35018 6.70978,0.84604c1.88925,0.84471 3.14953,2.68692 4.67272,4.08788c1.48842,1.36898 3.97719,1.55205 5.84179,1.9645c0,0 3.41665,0.75926 2.6574,4.17591c-0.75926,3.41665 -4.17591,2.6574 -4.17591,2.6574c-1.6693,-0.37249 -4.38026,-0.90504 -5.86672,-1.59194c-2.57798,-1.1913 -3.6225,-3.86809 -5.98647,-4.90341c-0.97016,-0.42489 -3.41902,-0.20657 -4.20129,-0.24507c-1.9211,-0.09454 -4.68087,-0.85961 -6.58036,-0.02771c-3.28889,1.4404 -5.02975,6.55883 -7.33054,9.01778c-2.16075,2.30927 -4.85196,3.63045 -7.6793,4.89701c-3.59022,1.56137 -9.5941,3.43532 -13.54687,1.9937c-3.17122,-1.15658 -5.1354,-4.83792 -6.71044,-7.50573c-3.75571,-6.36141 -6.82421,-11.71575 -15.18917,-10.84273c-1.55122,0.16189 -3.12645,0.36215 -4.59289,0.89324c-2.15241,0.77953 -4.19572,2.64693 -6.00652,3.9962c-5.08353,5.11092 -12.60217,13.56921 -20.82784,11.67336c-7.94205,-1.83049 -11.14417,-10.94499 -17.49246,-15.21654c-3.24127,-2.18094 -6.57397,-1.76217 -10.28536,-1.98668c-3.92847,2.49689 -6.56664,6.03921 -9.18875,9.79465c-0.63587,0.91071 -0.93698,2.05846 -1.69916,2.86642c-1.37854,1.46135 -3.25859,2.35168 -4.92292,3.47681c-2.1296,1.43966 -3.31524,2.18037 -5.89987,2.72147c-10.81296,2.26372 -17.95442,-6.26405 -23.83043,-14.04729z" fill="#000000" stroke="none" stroke-width="0.5" stroke-linecap="butt"/><g><path d="M255.77007,179.07312c0.10431,0.74872 1.13187,1.63019 1.80144,2.64608c0.75469,1.14508 1.14535,2.41526 0.96859,2.99134c-1.26834,4.13399 -8.41332,3.37702 -14.42333,5.22426c-0.89174,0.27408 -5.45037,10.45327 -6.40725,10.58659c-1.91818,0.26726 1.82126,-0.93425 -0.40849,-0.02028c-2.6989,1.10628 -6.9302,0.41787 -9.87325,-1.41501c-2.46773,-1.53685 -1.65948,-6.1678 -1.97257,-10.19344c-0.16378,-2.1059 -1.67002,-3.76468 -1.8885,-5.33278c-0.28213,-2.02503 -0.27879,-5.19259 -1.09434,-8.50838c-0.8682,-3.52975 -2.51246,-7.19835 -1.23328,-8.84041c0.51538,-0.66159 0.58778,-1.76188 1.60079,-2.85923c1.22226,-1.32405 4.22624,-2.7013 5.74942,-2.56287c1.70085,0.15455 4.12648,0.48119 5.8018,1.65939c1.83236,1.28865 -1.43295,0.08225 -0.07002,-0.10763c1.56153,-0.21756 6.28701,8.19781 7.77165,8.37942c4.71866,0.57723 11.57949,-0.91726 13.99849,1.58263c0.75816,0.78352 1.04432,2.1884 0.74764,3.68106c-0.19489,0.9805 -1.20245,2.12977 -1.06877,3.08929z" fill="#99cc00" stroke="#eaffb5" stroke-width="3.5" stroke-linecap="butt"/><path d="M224.07785,165.15433c0,0 0.47413,-1.02495 1.92928,-1.66083c1.56005,-0.68171 4.16808,-0.94304 6.06867,0.15587c1.58988,0.91928 3.23433,3.03496 4.78905,5.02372c1.56591,2.00312 3.04076,3.87747 4.27706,4.27089c5.93441,1.88848 12.79101,-0.61189 14.18795,0.6093c1.04229,0.91117 -1.278,3.55781 -1.8554,4.54921c-0.45381,0.77919 4.01119,6.09169 3.20541,6.91562c-1.11862,1.14383 -14.03773,2.7409 -15.19035,4.02952c-1.86591,2.08609 -2.75065,7.97733 -4.67092,9.23768c-3.28684,2.15731 -10.1658,-1.13245 -10.54245,-2.10289c-0.32443,-0.83588 0.0306,-3.38016 -0.23471,-4.39333c-0.75353,-2.87754 0.09998,-5.93637 -0.40242,-9.30206c-0.09289,-0.62221 -0.91978,-2.10729 -1.06639,-2.67979c-1.14044,-4.45316 -2.44999,-8.55235 -2.65876,-10.67791c-0.08495,-0.86489 1.33713,-2.95691 1.9286,-3.70227c0.60339,-0.76038 0.3773,-0.16552 0.3773,-0.16552" fill="none" stroke="#000000" stroke-width="3" stroke-linecap="round"/><path d="M230.32275,170.83661c1.54748,-0.2156 2.9863,0.93283 3.21371,2.56509c0.22741,1.63227 -0.84271,3.13025 -2.39017,3.34585c-1.54747,0.2156 -2.98629,-0.93282 -3.21371,-2.56509c-0.22741,-1.63227 0.8427,-3.13025 2.39016,-3.34586z" fill="#ffffff" stroke="#000000" stroke-width="1" stroke-linecap="butt"/><path d="M232.17572,182.79796c1.54747,-0.2156 2.98629,0.93283 3.21371,2.5651c0.22741,1.63227 -0.8427,3.13025 -2.39016,3.34586c-1.54747,0.2156 -2.98629,-0.93282 -3.21371,-2.56509c-0.22742,-1.63228 0.84271,-3.13026 2.39016,-3.34587z" fill="#ffffff" stroke="#000000" stroke-width="1" stroke-linecap="butt"/><path d="M230.03287,174.03497c-0.05715,-0.41026 0.22906,-0.78916 0.63933,-0.84632c0.41026,-0.05715 0.78916,0.22906 0.84632,0.63933c0.05715,0.41026 -0.22906,0.78916 -0.63933,0.84632c-0.41026,0.05715 -0.78916,-0.22906 -0.84632,-0.63933z" fill="#000000" stroke="none" stroke-width="0.5" stroke-linecap="butt"/><path d="M231.94841,185.81805c-0.05715,-0.41026 0.22906,-0.78916 0.63933,-0.84632c0.41026,-0.05715 0.78916,0.22906 0.84632,0.63933c0.05715,0.41026 -0.22906,0.78916 -0.63933,0.84632c-0.41026,0.05715 -0.78916,-0.22906 -0.84632,-0.63933z" fill="#000000" stroke="none" stroke-width="0.5" stroke-linecap="butt"/><path d="M242.79616,178.54803c-0.05716,-0.41025 0.22907,-0.78917 0.63933,-0.84632c0.41025,-0.05716 0.78917,0.22907 0.84632,0.63933c0.05716,0.41025 -0.22907,0.78917 -0.63933,0.84632c-0.41025,0.05716 -0.78917,-0.22907 -0.84632,-0.63933z" fill="#000000" stroke="none" stroke-width="0.5" stroke-linecap="butt"/><path d="M243.66242,182.61745c-0.05716,-0.41025 0.22907,-0.78917 0.63933,-0.84632c0.41025,-0.05716 0.78917,0.22907 0.84632,0.63933c0.05716,0.41025 -0.22907,0.78917 -0.63933,0.84632c-0.41025,0.05716 -0.78917,-0.22907 -0.84632,-0.63933z" fill="#000000" stroke="none" stroke-width="0.5" stroke-linecap="butt"/></g></g></g></svg>