<svg version="1.1" xmlns="http://www.w3.org/2000/svg" xmlns:xlink="http://www.w3.org/1999/xlink" width="226.53361" height="44.24189" viewBox="0,0,226.53361,44.24189"><g transform="translate(-32.87553,-157.40822)"><g data-paper-data="{&quot;isPaintingLayer&quot;:true}" fill-rule="nonzero" stroke-linejoin="miter" stroke-miterlimit="10" stroke-dasharray="" stroke-dashoffset="0" style="mix-blend-mode: normal"><path d="M38.16984,185.18975c-0.85367,0.54978 -2.13297,0.89883 -3.68964,-0.13895c-2.91218,-1.94145 -0.97073,-4.85363 -0.97073,-4.85363l4.21699,-2.29353c3.56493,0.79866 5.75893,1.66835 8.72593,3.86306c1.56837,1.80328 4.81194,6.85882 7.54205,6.98622c9.99502,0.46642 14.02671,-10.68892 19.27316,-17.01657c2.16089,-2.60621 5.12612,-5.32774 8.52677,-6.11478c0.44257,-0.10243 5.62211,-0.07355 6.34071,-0.07265c6.60486,0.60745 12.73954,2.70887 17.41044,7.66312c1.38669,1.47081 2.71943,2.9945 3.99159,4.56543c4.87218,6.0164 7.93345,13.55785 16.77359,13.95746c0.97312,0.04399 2.70088,0.14787 3.71107,-0.28757c0.75546,-0.32565 3.29164,-2.38216 3.64713,-2.6582c4.00854,-4.02285 7.85662,-8.5828 11.25585,-13.12842c1.82364,-2.43866 3.36949,-5.07537 5.86494,-6.95464c9.81284,-7.38985 24.28174,-3.79335 33.22413,3.04712c1.05378,1.40504 2.44122,2.52774 3.72393,3.72744c3.91081,3.65772 6.87168,9.31086 12.64793,10.297c1.67922,0.28668 4.56049,-0.85169 6.07424,-1.44666c2.2157,-0.87086 5.02717,-1.55674 7.0902,-2.73112c1.84103,-1.048 3.38075,-3.45589 4.99093,-4.84643c0,0 2.6574,-2.27777 4.93517,0.37963c2.27777,2.6574 -0.37963,4.93517 -0.37963,4.93517c-2.03761,1.73037 -3.60257,4.13075 -5.92014,5.51909c-1.87307,1.12207 -3.75829,1.41167 -5.73031,2.17887c-3.7894,1.47423 -7.96473,3.50918 -12.20181,2.91777c-7.52409,-1.05021 -11.24328,-7.39263 -16.26642,-12.0707c-1.34955,-1.25684 -2.80732,-2.43498 -3.91382,-3.91031c-1.91318,-1.38948 -3.33311,-2.19755 -5.5484,-3.0073c-4.26448,-1.55879 -9.8731,-2.98115 -14.46272,-1.56102c-4.10733,1.2709 -6.13506,4.54382 -8.54848,7.753c-3.69853,4.91801 -7.84648,9.80472 -12.20296,14.14926c-1.45648,1.13427 -3.85598,3.17554 -5.62728,3.88845c-2.21216,0.89034 -4.33035,0.90958 -6.65445,0.80353c-7.37268,-0.3364 -13.23119,-4.36403 -17.65912,-10.1283c-3.53628,-4.60352 -6.30639,-10.48422 -11.51786,-13.53641c-2.80021,-1.63999 -5.85518,-2.23862 -9.02493,-2.52244c-1.83702,0.00257 -4.26476,-0.5627 -5.88263,0.55371c-4.22834,2.91775 -6.16034,7.98905 -9.15202,11.94808c-3.99176,5.28248 -9.24473,9.43823 -15.89412,10.37082c-3.2128,0.4506 -4.43933,0.62764 -7.46195,-0.95561c-3.07797,-1.61224 -5.57422,-4.98165 -7.76074,-7.58376c-1.21033,-0.93375 -2.26062,-1.35812 -3.49657,-1.68523z" fill="#000000" stroke="none" stroke-width="0.5" stroke-linecap="butt"/><g><path d="M255.66496,181.45409c-0.01099,0.75587 0.87027,1.78362 1.37723,2.88966c0.57141,1.2467 0.76397,2.56157 0.5015,3.10399c-1.88341,3.89247 -8.82963,2.05568 -15.05093,2.96562c-0.92309,0.13501 -6.97947,9.50076 -7.94549,9.48673c-1.9365,-0.02813 1.94234,-0.64584 -0.40063,-0.08228c-2.83595,0.68214 -6.91295,-0.64294 -9.54237,-2.90285c-2.20475,-1.89491 -0.70033,-6.34863 -0.39639,-10.37498c0.159,-2.10627 -1.07691,-3.97518 -1.05391,-5.55826c0.02971,-2.04437 0.51564,-5.17444 0.21483,-8.57578c-0.32025,-3.62082 -1.38633,-7.49712 0.12811,-8.9251c0.61017,-0.57534 0.84937,-1.65175 2.01775,-2.58194c1.40973,-1.12236 4.58848,-2.02582 6.07279,-1.65692c1.65744,0.4119 4.00498,1.10431 5.48122,2.52402c1.61462,1.5528 -1.42875,-0.13704 -0.0528,-0.11704c1.57645,0.02291 4.96453,9.06003 6.40416,9.46573c4.57561,1.28946 11.58405,0.85778 13.5939,3.69706c0.62993,0.88989 0.69869,2.32197 0.17804,3.752c-0.34201,0.93936 -1.51292,1.92169 -1.527,2.89037z" fill="#99cc00" stroke="#eaffb5" stroke-width="3.5" stroke-linecap="butt"/><path d="M226.46355,162.86897c0,0 0.62476,-0.94074 2.15981,-1.34748c1.64571,-0.43605 4.2631,-0.29695 5.97406,1.07872c1.43125,1.15079 2.73414,3.49233 3.96768,5.69476c1.24242,2.21833 2.41446,4.29551 3.57638,4.87271c5.57738,2.77064 12.73489,1.34418 13.92945,2.76396c0.89129,1.05934 -1.80517,3.32154 -2.52689,4.21339c-0.56723,0.70095 3.03618,6.63174 2.11427,7.32327c-1.27984,0.96003 -14.29145,0.57001 -15.62695,1.66796c-2.16198,1.77743 -3.93402,7.46508 -6.0239,8.41813c-3.57717,1.63131 -9.87456,-2.66816 -10.09894,-3.68466c-0.19328,-0.87555 0.54527,-3.33603 0.43743,-4.3778c-0.30629,-2.95875 1.00332,-5.85182 1.01961,-9.25476c0.003,-0.6291 -0.58796,-2.22283 -0.64563,-2.81098c-0.44861,-4.57493 -1.11829,-8.82579 -1.00075,-10.95834c0.04782,-0.86774 1.77205,-2.71865 2.47019,-3.36519c0.7122,-0.65957 0.39811,-0.1061 0.39811,-0.1061" fill="none" stroke="#000000" stroke-width="3" stroke-linecap="round"/><path d="M231.76974,169.43642c1.56226,0.0227 2.8093,1.37695 2.78535,3.0248c-0.02395,1.64786 -1.30982,2.9653 -2.87206,2.9426c-1.56225,-0.0227 -2.80929,-1.37694 -2.78535,-3.0248c0.02395,-1.64786 1.30981,-2.9653 2.87205,-2.94261z" fill="#ffffff" stroke="#000000" stroke-width="1" stroke-linecap="butt"/><path d="M231.77856,181.54044c1.56225,0.0227 2.80929,1.37695 2.78535,3.02481c-0.02395,1.64786 -1.30981,2.9653 -2.87205,2.94261c-1.56225,-0.0227 -2.80929,-1.37694 -2.78535,-3.0248c0.02394,-1.64787 1.30982,-2.96531 2.87205,-2.94262z" fill="#ffffff" stroke="#000000" stroke-width="1" stroke-linecap="butt"/><path d="M230.99592,172.55327c0.00603,-0.41418 0.34663,-0.74504 0.76082,-0.73902c0.41418,0.00603 0.74504,0.34663 0.73902,0.76082c-0.00603,0.41418 -0.34663,0.74504 -0.76082,0.73902c-0.41418,-0.00603 -0.74504,-0.34663 -0.73902,-0.76082z" fill="#000000" stroke="none" stroke-width="0.5" stroke-linecap="butt"/><path d="M231.09374,184.49063c0.00603,-0.41418 0.34663,-0.74504 0.76082,-0.73902c0.41418,0.00603 0.74504,0.34663 0.73902,0.76082c-0.00603,0.41418 -0.34663,0.74504 -0.76082,0.73902c-0.41418,-0.00603 -0.74504,-0.34663 -0.73902,-0.76082z" fill="#000000" stroke="none" stroke-width="0.5" stroke-linecap="butt"/><path d="M242.92254,178.95834c0.00602,-0.41417 0.34664,-0.74505 0.76082,-0.73902c0.41417,0.00602 0.74505,0.34664 0.73902,0.76082c-0.00602,0.41417 -0.34664,0.74505 -0.76082,0.73902c-0.41417,-0.00602 -0.74505,-0.34664 -0.73902,-0.76082z" fill="#000000" stroke="none" stroke-width="0.5" stroke-linecap="butt"/><path d="M243.15864,183.11223c0.00602,-0.41417 0.34664,-0.74505 0.76082,-0.73902c0.41417,0.00602 0.74505,0.34664 0.73902,0.76082c-0.00602,0.41417 -0.34664,0.74505 -0.76082,0.73902c-0.41417,-0.00602 -0.74505,-0.34664 -0.73902,-0.76082z" fill="#000000" stroke="none" stroke-width="0.5" stroke-linecap="butt"/></g><g><path d="M255.66496,181.45409c-0.01099,0.75587 0.87027,1.78362 1.37723,2.88966c0.57141,1.2467 0.76397,2.56157 0.5015,3.10399c-1.88341,3.89247 -8.82963,2.05568 -15.05093,2.96562c-0.92309,0.13501 -6.97947,9.50076 -7.94549,9.48673c-1.9365,-0.02813 1.94234,-0.64584 -0.40063,-0.08228c-2.83595,0.68214 -6.91295,-0.64294 -9.54237,-2.90285c-2.20475,-1.89491 -0.70033,-6.34863 -0.39639,-10.37498c0.159,-2.10627 -1.07691,-3.97518 -1.05391,-5.55826c0.02971,-2.04437 0.51564,-5.17444 0.21483,-8.57578c-0.32025,-3.62082 -1.38633,-7.49712 0.12811,-8.9251c0.61017,-0.57534 0.84937,-1.65175 2.01775,-2.58194c1.40973,-1.12236 4.58848,-2.02582 6.07279,-1.65692c1.65744,0.4119 4.00498,1.10431 5.48122,2.52402c1.61462,1.5528 -1.42875,-0.13704 -0.0528,-0.11704c1.57645,0.02291 4.96453,9.06003 6.40416,9.46573c4.57561,1.28946 11.58405,0.85778 13.5939,3.69706c0.62993,0.88989 0.69869,2.32197 0.17804,3.752c-0.34201,0.93936 -1.51292,1.92169 -1.527,2.89037z" fill="#99cc00" stroke="#eaffb5" stroke-width="3.5" stroke-linecap="butt"/><path d="M226.46355,162.86897c0,0 0.62476,-0.94074 2.15981,-1.34748c1.64571,-0.43605 4.2631,-0.29695 5.97406,1.07872c1.43125,1.15079 2.73414,3.49233 3.96768,5.69476c1.24242,2.21833 2.41446,4.29551 3.57638,4.87271c5.57738,2.77064 12.73489,1.34418 13.92945,2.76396c0.89129,1.05934 -1.80517,3.32154 -2.52689,4.21339c-0.56723,0.70095 3.03618,6.63174 2.11427,7.32327c-1.27984,0.96003 -14.29145,0.57001 -15.62695,1.66796c-2.16198,1.77743 -3.93402,7.46508 -6.0239,8.41813c-3.57717,1.63131 -9.87456,-2.66816 -10.09894,-3.68466c-0.19328,-0.87555 0.54527,-3.33603 0.43743,-4.3778c-0.30629,-2.95875 1.00332,-5.85182 1.01961,-9.25476c0.003,-0.6291 -0.58796,-2.22283 -0.64563,-2.81098c-0.44861,-4.57493 -1.11829,-8.82579 -1.00075,-10.95834c0.04782,-0.86774 1.77205,-2.71865 2.47019,-3.36519c0.7122,-0.65957 0.39811,-0.1061 0.39811,-0.1061" fill="none" stroke="#000000" stroke-width="3" stroke-linecap="round"/><path d="M231.76974,169.43642c1.56226,0.0227 2.8093,1.37695 2.78535,3.0248c-0.02395,1.64786 -1.30982,2.9653 -2.87206,2.9426c-1.56225,-0.0227 -2.80929,-1.37694 -2.78535,-3.0248c0.02395,-1.64786 1.30981,-2.9653 2.87205,-2.94261z" fill="#ffffff" stroke="#000000" stroke-width="1" stroke-linecap="butt"/><path d="M231.77856,181.54044c1.56225,0.0227 2.80929,1.37695 2.78535,3.02481c-0.02395,1.64786 -1.30981,2.9653 -2.87205,2.94261c-1.56225,-0.0227 -2.80929,-1.37694 -2.78535,-3.0248c0.02394,-1.64787 1.30982,-2.96531 2.87205,-2.94262z" fill="#ffffff" stroke="#000000" stroke-width="1" stroke-linecap="butt"/><path d="M230.99592,172.55327c0.00603,-0.41418 0.34663,-0.74504 0.76082,-0.73902c0.41418,0.00603 0.74504,0.34663 0.73902,0.76082c-0.00603,0.41418 -0.34663,0.74504 -0.76082,0.73902c-0.41418,-0.00603 -0.74504,-0.34663 -0.73902,-0.76082z" fill="#000000" stroke="none" stroke-width="0.5" stroke-linecap="butt"/><path d="M231.09374,184.49063c0.00603,-0.41418 0.34663,-0.74504 0.76082,-0.73902c0.41418,0.00603 0.74504,0.34663 0.73902,0.76082c-0.00603,0.41418 -0.34663,0.74504 -0.76082,0.73902c-0.41418,-0.00603 -0.74504,-0.34663 -0.73902,-0.76082z" fill="#000000" stroke="none" stroke-width="0.5" stroke-linecap="butt"/><path d="M242.92254,178.95834c0.00602,-0.41417 0.34664,-0.74505 0.76082,-0.73902c0.41417,0.00602 0.74505,0.34664 0.73902,0.76082c-0.00602,0.41417 -0.34664,0.74505 -0.76082,0.73902c-0.41417,-0.00602 -0.74505,-0.34664 -0.73902,-0.76082z" fill="#000000" stroke="none" stroke-width="0.5" stroke-linecap="butt"/><path d="M243.15864,183.11223c0.00602,-0.41417 0.34664,-0.74505 0.76082,-0.73902c0.41417,0.00602 0.74505,0.34664 0.73902,0.76082c-0.00602,0.41417 -0.34664,0.74505 -0.76082,0.73902c-0.41417,-0.00602 -0.74505,-0.34664 -0.73902,-0.76082z" fill="#000000" stroke="none" stroke-width="0.5" stroke-linecap="butt"/></g></g></g></svg>