<svg version="1.1" xmlns="http://www.w3.org/2000/svg" xmlns:xlink="http://www.w3.org/1999/xlink" width="215.09002" height="44.24188" viewBox="0,0,215.09002,44.24188"><g transform="translate(-44.31911,-157.40822)"><g data-paper-data="{&quot;isPaintingLayer&quot;:true}" fill-rule="nonzero" stroke-linejoin="miter" stroke-miterlimit="10" stroke-dasharray="" stroke-dashoffset="0" style="mix-blend-mode: normal"><path d="M44.45535,171.16833c-0.84887,-3.3955 2.54662,-4.24437 2.54662,-4.24437l2.78498,-0.58853c3.28059,0 7.12423,-0.48846 10.34242,0.06315c0.45411,0.07784 5.14151,1.99797 5.73366,2.23749c2.54581,1.51503 5.51597,2.92095 7.85908,4.73299c0.88633,0.68544 2.72401,2.94569 3.8749,3.55646c4.21863,2.23877 10.98837,3.29192 15.67577,2.52383c4.20473,-0.689 8.27272,-4.52004 10.97109,-7.53442c1.55281,-1.73467 2.77895,-3.89408 4.76831,-5.10352c3.14393,-1.91137 6.75499,-1.91613 10.27933,-1.91613c4.44151,0.72342 9.07824,1.14345 12.66312,4.24088c2.94999,2.54887 4.90799,6.23811 8.29562,8.3997c4.10917,2.62199 7.80764,1.72036 12.34579,1.39621c5.21486,-0.37249 10.78343,-0.19711 14.59425,-4.62346c1.2939,-1.5029 2.17787,-3.32182 3.41563,-4.87129c4.52252,-4.46668 9.73239,-6.43862 16.16213,-5.48819c1.16196,0.17176 2.22754,0.7876 3.38819,0.96805c1.06171,0.16507 2.18284,-0.21013 3.22284,0.0598c0.45581,0.1183 6.55924,3.13083 7.05068,3.47119c3.05303,2.11445 5.73737,5.05265 8.91221,7.07573c3.30427,2.10556 9.50852,0.9761 13.24265,0.9761c0,0 3.5,0 3.5,3.5c0,3.5 -3.5,3.5 -3.5,3.5c-5.42622,0 -11.87062,0.90527 -16.76703,-1.92806c-3.42092,-1.97953 -6.30591,-5.19254 -9.48082,-7.44508c-2.49603,-1.77089 -4.37967,-1.85591 -7.15146,-2.27734c-5.38488,-0.81873 -9.14278,-2.04854 -13.36352,2.25624c-1.22318,1.526 -2.04647,3.36098 -3.36075,4.80925c-5.27663,5.81458 -12.0391,6.47544 -19.28765,6.99319c-6.1427,0.43876 -11.14552,1.04947 -16.69583,-2.47601c-3.735,-2.37242 -5.99035,-6.10728 -9.12936,-9.02528c-2.18616,-2.03224 -5.90588,-2.0682 -8.63407,-2.5355c-2.05748,0 -4.31769,-0.09721 -6.17759,0.98803c-1.34677,0.78583 -1.93028,2.45245 -2.97612,3.60896c-2.1734,2.40339 -5.83278,5.83888 -8.64053,7.52366c-7.23037,4.33856 -19.48081,3.0717 -26.66809,-0.9176c-1.86485,-1.03508 -3.15864,-2.87261 -4.83759,-4.18798c-1.96803,-1.54184 -4.51868,-2.68082 -6.66173,-3.9795c-1.32468,-0.5225 -2.54058,-1.41085 -3.94688,-1.63473c-2.80264,-0.44617 -6.16668,0.06315 -9.01867,0.06315l-1.08723,0.37953c0,0 -3.3955,0.84887 -4.24437,-2.54662z" fill="#000000" stroke="none" stroke-width="0.5" stroke-linecap="butt"/><g><path d="M255.66496,181.45409c-0.01099,0.75587 0.87027,1.78362 1.37723,2.88966c0.57141,1.2467 0.76397,2.56157 0.5015,3.10399c-1.88341,3.89247 -8.82963,2.05568 -15.05093,2.96562c-0.92309,0.13501 -6.97947,9.50076 -7.94549,9.48673c-1.9365,-0.02813 1.94234,-0.64584 -0.40063,-0.08228c-2.83595,0.68214 -6.91295,-0.64294 -9.54237,-2.90285c-2.20475,-1.89491 -0.70033,-6.34863 -0.39639,-10.37498c0.159,-2.10627 -1.07691,-3.97518 -1.05391,-5.55826c0.02971,-2.04437 0.51564,-5.17444 0.21483,-8.57578c-0.32025,-3.62082 -1.38633,-7.49712 0.12811,-8.9251c0.61017,-0.57534 0.84937,-1.65175 2.01775,-2.58194c1.40973,-1.12236 4.58848,-2.02582 6.07279,-1.65692c1.65744,0.4119 4.00498,1.10431 5.48122,2.52402c1.61462,1.5528 -1.42875,-0.13704 -0.0528,-0.11704c1.57645,0.02291 4.96453,9.06003 6.40416,9.46573c4.57561,1.28946 11.58405,0.85778 13.5939,3.69706c0.62993,0.88989 0.69869,2.32197 0.17804,3.752c-0.34201,0.93936 -1.51292,1.92169 -1.527,2.89037z" fill="#99cc00" stroke="#eaffb5" stroke-width="3.5" stroke-linecap="butt"/><path d="M226.46355,162.86897c0,0 0.62476,-0.94074 2.15981,-1.34748c1.64571,-0.43605 4.2631,-0.29695 5.97406,1.07872c1.43125,1.15079 2.73414,3.49233 3.96768,5.69476c1.24242,2.21833 2.41446,4.29551 3.57638,4.87271c5.57738,2.77064 12.73489,1.34418 13.92945,2.76396c0.89129,1.05934 -1.80517,3.32154 -2.52689,4.21339c-0.56723,0.70095 3.03618,6.63174 2.11427,7.32327c-1.27984,0.96003 -14.29145,0.57001 -15.62695,1.66796c-2.16198,1.77743 -3.93402,7.46508 -6.0239,8.41813c-3.57717,1.63131 -9.87456,-2.66816 -10.09894,-3.68466c-0.19328,-0.87555 0.54527,-3.33603 0.43743,-4.3778c-0.30629,-2.95875 1.00332,-5.85182 1.01961,-9.25476c0.003,-0.6291 -0.58796,-2.22283 -0.64563,-2.81098c-0.44861,-4.57493 -1.11829,-8.82579 -1.00075,-10.95834c0.04782,-0.86774 1.77205,-2.71865 2.47019,-3.36519c0.7122,-0.65957 0.39811,-0.1061 0.39811,-0.1061" fill="none" stroke="#000000" stroke-width="3" stroke-linecap="round"/><path d="M231.76974,169.43642c1.56226,0.0227 2.8093,1.37695 2.78535,3.0248c-0.02395,1.64786 -1.30982,2.9653 -2.87206,2.9426c-1.56225,-0.0227 -2.80929,-1.37694 -2.78535,-3.0248c0.02395,-1.64786 1.30981,-2.9653 2.87205,-2.94261z" fill="#ffffff" stroke="#000000" stroke-width="1" stroke-linecap="butt"/><path d="M231.77856,181.54044c1.56225,0.0227 2.80929,1.37695 2.78535,3.02481c-0.02395,1.64786 -1.30981,2.9653 -2.87205,2.94261c-1.56225,-0.0227 -2.80929,-1.37694 -2.78535,-3.0248c0.02394,-1.64787 1.30982,-2.96531 2.87205,-2.94262z" fill="#ffffff" stroke="#000000" stroke-width="1" stroke-linecap="butt"/><path d="M230.99592,172.55327c0.00603,-0.41418 0.34663,-0.74504 0.76082,-0.73902c0.41418,0.00603 0.74504,0.34663 0.73902,0.76082c-0.00603,0.41418 -0.34663,0.74504 -0.76082,0.73902c-0.41418,-0.00603 -0.74504,-0.34663 -0.73902,-0.76082z" fill="#000000" stroke="none" stroke-width="0.5" stroke-linecap="butt"/><path d="M231.09374,184.49063c0.00603,-0.41418 0.34663,-0.74504 0.76082,-0.73902c0.41418,0.00603 0.74504,0.34663 0.73902,0.76082c-0.00603,0.41418 -0.34663,0.74504 -0.76082,0.73902c-0.41418,-0.00603 -0.74504,-0.34663 -0.73902,-0.76082z" fill="#000000" stroke="none" stroke-width="0.5" stroke-linecap="butt"/><path d="M242.92254,178.95834c0.00602,-0.41417 0.34664,-0.74505 0.76082,-0.73902c0.41417,0.00602 0.74505,0.34664 0.73902,0.76082c-0.00602,0.41417 -0.34664,0.74505 -0.76082,0.73902c-0.41417,-0.00602 -0.74505,-0.34664 -0.73902,-0.76082z" fill="#000000" stroke="none" stroke-width="0.5" stroke-linecap="butt"/><path d="M243.15864,183.11223c0.00602,-0.41417 0.34664,-0.74505 0.76082,-0.73902c0.41417,0.00602 0.74505,0.34664 0.73902,0.76082c-0.00602,0.41417 -0.34664,0.74505 -0.76082,0.73902c-0.41417,-0.00602 -0.74505,-0.34664 -0.73902,-0.76082z" fill="#000000" stroke="none" stroke-width="0.5" stroke-linecap="butt"/></g></g></g></svg>