<svg version="1.1" xmlns="http://www.w3.org/2000/svg" xmlns:xlink="http://www.w3.org/1999/xlink" width="223.59235" height="42.3123" viewBox="0,0,223.59235,42.3123"><g transform="translate(-34.5583,-155.66872)"><g data-paper-data="{&quot;isPaintingLayer&quot;:true}" fill-rule="nonzero" stroke-linejoin="miter" stroke-miterlimit="10" stroke-dasharray="" stroke-dashoffset="0" style="mix-blend-mode: normal"><path d="M34.55831,167.95423c0,-3.5 3.5,-3.5 3.5,-3.5h1.36388c3.27079,0.04495 5.72456,0.8535 8.88015,1.59181c3.67991,1.99187 8.04342,3.98788 10.74329,7.33257c3.34619,4.14539 4.35984,9.52072 8.23227,13.38999c0.94695,0.94618 1.72812,2.22387 2.98376,2.68792c1.12572,0.41604 2.37659,-0.3557 3.5446,-0.63153c1.85919,-0.43905 2.73973,-0.53838 4.24614,-1.63866c1.30002,-0.94953 2.50661,-2.03043 3.64297,-3.17076c1.97206,-1.97895 3.94871,-3.93231 5.62422,-6.16633c2.64252,-2.32775 5.53333,-4.87999 7.83275,-7.55103c2.63618,-3.06222 5.93025,-7.0833 9.98382,-8.38896c14.52343,-4.678 25.33496,9.73685 32.67479,19.57281c2.22898,2.21828 4.85087,6.78083 8.35025,6.9775c1.54812,0.08701 3.62006,-1.6694 4.62901,-2.6134c3.02525,-2.83051 5.11191,-6.77902 6.4406,-10.58981c3.11666,-8.93886 9.96343,-15.04338 19.67092,-15.16658c4.55845,0.00683 9.56103,0.30821 13.07652,3.71678c3.62938,3.519 4.42122,10.08682 9.19225,12.46018c2.0099,0.99983 4.49756,0.73689 6.64558,0.73521c4.60561,-0.0036 8.74914,-0.92662 13.32197,-1.34951c0,0 3.48563,-0.31688 3.8025,3.16875c0.31688,3.48563 -3.16875,3.8025 -3.16875,3.8025c-7.44427,0.66352 -16.50617,3.52588 -23.67675,-0.06875c-6.07859,-3.04721 -6.77125,-9.22631 -10.99324,-13.7264c-1.91313,-2.03915 -5.73709,-1.74295 -8.20007,-1.73876c-4.41951,-0.08186 -8.81351,2.10924 -11.22539,6.00705c-1.40005,2.26261 -1.70464,5.10442 -2.77096,7.48444c-1.21108,2.70312 -3.237,5.56637 -5.10686,7.85293c-4.1358,5.05745 -9.84742,8.73805 -16.4981,5.86632c-3.54122,-1.52908 -6.13198,-5.57466 -8.77764,-8.23205c-4.54477,-6.03171 -9.11315,-13.78722 -16.56304,-16.46448c-2.54777,-0.91559 -5.87137,-1.88301 -8.59087,-1.06036c-2.7621,0.83553 -5.15574,4.30814 -6.92835,6.34099c-2.37037,2.71836 -5.26934,5.36257 -7.98831,7.72447c-2.24995,2.99993 -5.07103,5.72197 -7.91277,8.17635c-2.19671,1.89727 -2.80736,2.72353 -5.60862,3.86917c-0.96881,0.39621 -5.51452,1.5311 -6.70332,1.60526c-6.87131,0.42868 -12.15109,-6.01947 -15.16506,-11.66065c-1.14322,-2.13974 -1.9204,-4.86641 -3.43938,-6.7939c-1.85992,-2.36011 -5.26858,-3.75295 -7.80554,-5.21516c-2.297,-0.47572 -4.03517,-1.18517 -6.39535,-1.13595h-1.36388c0,0 -3.5,0 -3.5,-3.5z" fill="#000000" stroke="none" stroke-width="0.5" stroke-linecap="butt"/><g><path d="M251.78025,189.5498c-0.40426,0.63878 -0.18976,1.97552 -0.33532,3.18347c-0.16409,1.36156 -0.68682,2.58333 -1.19401,2.90871c-3.6395,2.33508 -8.60281,-2.86006 -14.38298,-5.33437c-0.85764,-0.36713 -10.91477,4.45481 -11.73115,3.93816c-1.63652,-1.03568 1.9936,0.46404 -0.29863,-0.27946c-2.77453,-0.89995 -5.55864,-4.15977 -6.62004,-7.46046c-0.88998,-2.76759 2.71957,-5.77923 5.08224,-9.05363c1.23596,-1.7129 1.15851,-3.95217 2.00517,-5.29002c1.09338,-1.72768 3.14298,-4.14276 4.66345,-7.20016c1.61856,-3.25471 2.73465,-7.11691 4.772,-7.54333c0.82086,-0.17181 1.58717,-0.96467 3.06938,-1.14743c1.7884,-0.22052 4.97086,0.6698 6.04378,1.75981c1.19808,1.21712 2.83804,3.03396 3.3551,5.01575c0.56553,2.16757 -1.14667,-0.86328 0.01613,-0.12738c1.33224,0.84312 -0.5001,10.31894 0.51549,11.41699c3.22788,3.48995 9.42936,6.7833 9.65979,10.25432c0.07222,1.08789 -0.61732,2.34491 -1.80836,3.29227c-0.78238,0.6223 -2.29399,0.84818 -2.81206,1.66681z" fill="#99cc00" stroke="#eaffb5" stroke-width="3.5" stroke-linecap="butt"/><path d="M236.59026,158.44686c0,0 1.0242,-0.47575 2.5456,-0.02062c1.63107,0.48796 3.7902,1.97398 4.53041,4.04085c0.61919,1.72898 0.50684,4.40624 0.40803,6.92866c-0.09954,2.54061 -0.18535,4.92409 0.50384,6.02328c3.30825,5.27627 10.15655,7.79928 10.43338,9.63398c0.20656,1.36891 -3.27451,1.88913 -4.35584,2.27254c-0.84986,0.30135 -0.87575,7.24095 -2.02312,7.34897c-1.59285,0.14997 -12.48383,-6.98029 -14.1962,-6.7418c-2.77207,0.38609 -7.25447,4.31007 -9.53437,4.03089c-3.90244,-0.47785 -7.02591,-7.43388 -6.68618,-8.41785c0.29261,-0.84754 2.2078,-2.5597 2.6601,-3.50434c1.28458,-2.68288 3.9127,-4.46556 5.70439,-7.35867c0.33122,-0.53485 0.65993,-2.20253 0.91803,-2.73416c2.00757,-4.13533 3.65733,-8.10981 4.87168,-9.86678c0.49411,-0.71492 2.9313,-1.39236 3.86437,-1.57892c0.95186,-0.19033 0.39489,0.11751 0.39489,0.11751" fill="none" stroke="#000000" stroke-width="3" stroke-linecap="round"/><path d="M237.68369,166.81892c1.32025,0.83553 1.67607,2.64177 0.79476,4.03435c-0.88132,1.39258 -2.66603,1.84416 -3.98626,1.00863c-1.32024,-0.83553 -1.67606,-2.64175 -0.79476,-4.03435c0.88132,-1.39258 2.66602,-1.84416 3.98626,-1.00865z" fill="#ffffff" stroke="#000000" stroke-width="1" stroke-linecap="butt"/><path d="M231.36767,177.14439c1.32024,0.83553 1.67606,2.64176 0.79476,4.03435c-0.88132,1.39258 -2.66602,1.84416 -3.98626,1.00865c-1.32024,-0.83553 -1.67606,-2.64175 -0.79476,-4.03435c0.88132,-1.39259 2.66603,-1.84417 3.98626,-1.00866z" fill="#ffffff" stroke="#000000" stroke-width="1" stroke-linecap="butt"/><path d="M235.39552,169.07233c0.22153,-0.35001 0.68479,-0.45419 1.03483,-0.23267c0.35001,0.22153 0.45419,0.68479 0.23267,1.03483c-0.22153,0.35001 -0.68479,0.45419 -1.03483,0.23267c-0.35001,-0.22153 -0.45419,-0.68479 -0.23267,-1.03483z" fill="#000000" stroke="none" stroke-width="0.5" stroke-linecap="butt"/><path d="M229.24246,179.30219c0.22153,-0.35001 0.68479,-0.45419 1.03483,-0.23267c0.35001,0.22153 0.45419,0.68479 0.23267,1.03483c-0.22153,0.35001 -0.68479,0.45419 -1.03483,0.23267c-0.35001,-0.22153 -0.45419,-0.68479 -0.23267,-1.03483z" fill="#000000" stroke="none" stroke-width="0.5" stroke-linecap="butt"/><path d="M242.21889,180.76467c0.22151,-0.35001 0.68482,-0.4542 1.03483,-0.23267c0.35001,0.22151 0.4542,0.68482 0.23267,1.03483c-0.22151,0.35001 -0.68482,0.4542 -1.03483,0.23267c-0.35001,-0.22151 -0.4542,-0.68482 -0.23267,-1.03483z" fill="#000000" stroke="none" stroke-width="0.5" stroke-linecap="butt"/><path d="M240.25009,184.42995c0.22151,-0.35001 0.68482,-0.4542 1.03483,-0.23267c0.35001,0.22151 0.4542,0.68482 0.23267,1.03483c-0.22151,0.35001 -0.68482,0.4542 -1.03483,0.23267c-0.35001,-0.22151 -0.4542,-0.68482 -0.23267,-1.03483z" fill="#000000" stroke="none" stroke-width="0.5" stroke-linecap="butt"/></g></g></g></svg>